<?xml version="1.0" encoding="utf-8"?>
<!-- Generator: Adobe Illustrator 28.2.0, SVG Export Plug-In . SVG Version: 6.00 Build 0)  -->
<svg version="1.1" id="Layer_1" xmlns="http://www.w3.org/2000/svg" xmlns:xlink="http://www.w3.org/1999/xlink" x="0px" y="0px"
	 viewBox="0 0 1177.01 857.74" style="enable-background:new 0 0 1177.01 857.74;" xml:space="preserve">
<style type="text/css">
	.st0{fill:#101216;}
	.st1{fill:#FFFFFF;}
	.st2{fill:url(#SVGID_1_);}
	.st3{fill:url(#SVGID_00000047759927105026903420000012236408741866225548_);}
	.st4{fill:url(#SVGID_00000130609728696882272820000009019813442828861858_);}
	.st5{fill:url(#SVGID_00000036224377201332690060000017729470356090343596_);}
	.st6{fill:url(#SVGID_00000071521426613035152020000014487120830172149416_);}
	.st7{fill:url(#SVGID_00000133515102823397906700000000767399327893865397_);}
	.st8{fill:url(#SVGID_00000075871061416958712030000011425528385577471147_);}
	.st9{fill:url(#SVGID_00000109007280264207036760000013927956629078057380_);}
	.st10{fill:url(#SVGID_00000173141340715741451020000009515284536789606801_);}
	.st11{fill:none;stroke:url(#SVGID_00000045590318145866487150000004351723334018726558_);stroke-width:2;stroke-miterlimit:10;}
	.st12{fill:none;}
	.st13{fill:url(#SVGID_00000076576981520391237190000014734056566497761974_);}
	.st14{fill:url(#SVGID_00000121988076724667281790000010176054224377547157_);}
	.st15{fill:url(#SVGID_00000157276393128446859340000014871909347288342699_);}
	.st16{fill:url(#SVGID_00000165947778814492253700000005281658070729926557_);}
	.st17{fill:url(#SVGID_00000042709583464977439830000003512617063146369436_);}
	.st18{fill:none;stroke:url(#SVGID_00000127730249911360054880000001642670493079262625_);stroke-width:2;stroke-miterlimit:10;}
	.st19{opacity:0.48;fill:url(#SVGID_00000007405962106546398340000016867451904985756814_);}
	.st20{opacity:0.69;fill:url(#SVGID_00000150791747987490556730000009747010988708612267_);}
	.st21{fill:url(#SVGID_00000036250423472728617790000004339174809539729835_);}
	.st22{opacity:0.69;fill:url(#SVGID_00000057107442773307107180000003934485410016946342_);}
	.st23{fill:url(#SVGID_00000101092651727680008440000013355402103706923922_);}
	.st24{fill:none;stroke:url(#SVGID_00000142171365089092566650000014769133842748965553_);stroke-width:2;stroke-miterlimit:10;}
	.st25{fill:none;stroke:url(#SVGID_00000156583509948449565240000014621745474653434503_);stroke-width:2;stroke-miterlimit:10;}
</style>
<g>
	<rect y="795.52" class="st0" width="1177.01" height="62.22"/>
	<g>
		<g>
			<path class="st1" d="M478.11,816.92h2.64c2.08,0,3.79,0.55,5.14,1.64c1.36,1.08,2.03,2.64,2.03,4.68c0,2.09-0.67,3.69-2.02,4.8
				c-1.34,1.11-3.08,1.66-5.2,1.66h-2.6V816.92z M479.7,828.25h0.56c0.83,0,1.61-0.09,2.35-0.25c0.73-0.16,1.38-0.44,1.92-0.83
				c0.55-0.39,0.99-0.9,1.31-1.52c0.33-0.63,0.49-1.41,0.49-2.33c0-0.91-0.16-1.69-0.48-2.35c-0.32-0.65-0.77-1.15-1.35-1.52
				c-0.58-0.37-1.21-0.64-1.91-0.81c-0.69-0.17-1.47-0.26-2.33-0.26h-0.56V828.25z"/>
			<path class="st1" d="M490.27,825.99c0.02,0.71,0.25,1.33,0.68,1.85c0.44,0.52,1.01,0.78,1.71,0.78c0.56,0,1.01-0.12,1.37-0.38
				c0.36-0.26,0.69-0.64,1.01-1.16l1.29,0.73c-0.37,0.68-0.88,1.21-1.53,1.59c-0.65,0.38-1.37,0.58-2.15,0.58
				c-1.18,0-2.14-0.4-2.85-1.19c-0.7-0.81-1.05-1.8-1.05-2.99c0-1.25,0.33-2.29,1-3.09c0.66-0.79,1.61-1.18,2.87-1.18
				c1.22,0,2.14,0.39,2.77,1.18c0.63,0.79,0.95,1.8,0.95,3.04v0.24H490.27z M494.8,824.84c-0.09-0.61-0.32-1.1-0.7-1.45
				c-0.38-0.35-0.87-0.54-1.48-0.54c-0.29,0-0.57,0.05-0.82,0.15c-0.26,0.09-0.48,0.24-0.68,0.41c-0.19,0.19-0.36,0.4-0.49,0.64
				c-0.13,0.24-0.22,0.51-0.26,0.79H494.8z"/>
			<path class="st1" d="M500.82,823.59c-0.23-0.47-0.57-0.7-1.01-0.7c-0.21,0-0.41,0.07-0.58,0.23c-0.17,0.15-0.25,0.34-0.25,0.55
				c0,0.2,0.06,0.37,0.19,0.51c0.13,0.14,0.31,0.28,0.53,0.4c0.15,0.06,0.26,0.12,0.34,0.16c0.08,0.04,0.21,0.1,0.39,0.18
				c0.09,0.04,0.17,0.09,0.24,0.1c0.06,0.02,0.12,0.04,0.15,0.07c0.56,0.26,1.01,0.56,1.34,0.9c0.33,0.34,0.49,0.79,0.49,1.36
				c0,0.75-0.27,1.37-0.81,1.88c-0.53,0.5-1.17,0.75-1.92,0.75c-0.3,0-0.6-0.04-0.88-0.13c-0.29-0.08-0.55-0.2-0.79-0.36
				c-0.24-0.16-0.46-0.34-0.65-0.56c-0.18-0.22-0.33-0.47-0.43-0.74l1.31-0.59c0.37,0.68,0.85,1.01,1.44,1.01
				c0.24,0,0.46-0.06,0.66-0.19c0.2-0.13,0.35-0.3,0.45-0.5c0.1-0.2,0.12-0.41,0.06-0.64c-0.06-0.23-0.23-0.46-0.53-0.66l-1.49-0.8
				c-0.26-0.13-0.48-0.26-0.68-0.4c-0.19-0.14-0.35-0.29-0.47-0.44c-0.12-0.15-0.22-0.32-0.28-0.51c-0.06-0.18-0.09-0.4-0.09-0.66
				c0-0.64,0.22-1.18,0.68-1.63c0.45-0.45,1-0.68,1.66-0.68c0.99,0,1.72,0.47,2.17,1.39L500.82,823.59z"/>
			<path class="st1" d="M506.3,818.14c0,0.29-0.1,0.53-0.31,0.73c-0.2,0.2-0.45,0.29-0.75,0.29c-0.3,0-0.54-0.09-0.75-0.29
				c-0.2-0.21-0.31-0.45-0.31-0.73c0-0.29,0.1-0.54,0.31-0.76c0.2-0.21,0.45-0.31,0.75-0.31c0.29,0,0.54,0.1,0.75,0.31
				C506.2,817.6,506.3,817.85,506.3,818.14z M506,829.71h-1.53v-7.94H506V829.71z"/>
			<path class="st1" d="M515.88,829.56c0,1.49-0.29,2.64-0.85,3.47c-0.56,0.82-1.57,1.22-3.02,1.22c-1.12,0-2.04-0.32-2.75-0.97
				c-0.7-0.64-1.07-1.52-1.09-2.62h1.52c0,0.71,0.22,1.26,0.66,1.65c0.43,0.39,1.01,0.59,1.72,0.59c0.87,0,1.46-0.26,1.79-0.76
				c0.32-0.51,0.48-1.23,0.48-2.15v-1.51h-0.03c-0.32,0.48-0.71,0.85-1.18,1.11c-0.47,0.27-0.98,0.4-1.52,0.4
				c-1.18,0-2.1-0.41-2.78-1.24c-0.68-0.83-1.02-1.85-1.02-3.05c0-1.15,0.34-2.12,1.03-2.92c0.69-0.82,1.59-1.24,2.7-1.24
				c1.17,0,2.09,0.53,2.77,1.6h0.03v-1.36h1.53V829.56z M511.86,828.62c0.8,0,1.43-0.27,1.88-0.83c0.47-0.56,0.7-1.25,0.7-2.05
				c0-0.79-0.23-1.47-0.7-2.02c-0.45-0.55-1.08-0.82-1.88-0.82c-0.76,0-1.37,0.27-1.83,0.85c-0.45,0.55-0.68,1.22-0.68,2
				c0,0.8,0.23,1.49,0.68,2.03C510.49,828.34,511.1,828.62,511.86,828.62z"/>
			<path class="st1" d="M519.39,822.83h0.03c0.23-0.41,0.56-0.74,0.99-0.96c0.43-0.23,0.9-0.34,1.41-0.34
				c0.52,0,0.96,0.08,1.32,0.24c0.36,0.16,0.65,0.39,0.88,0.68c0.22,0.29,0.38,0.66,0.47,1.07c0.1,0.43,0.14,0.91,0.14,1.45v4.73
				h-1.52v-4.54c0-0.78-0.12-1.35-0.34-1.72c-0.23-0.37-0.69-0.56-1.41-0.56c-0.26,0-0.48,0.02-0.66,0.07
				c-0.18,0.05-0.34,0.13-0.47,0.22c-0.14,0.1-0.25,0.21-0.34,0.33c-0.09,0.12-0.17,0.26-0.25,0.41c-0.03,0.08-0.07,0.18-0.1,0.3
				c-0.03,0.12-0.05,0.25-0.07,0.39c-0.02,0.13-0.04,0.25-0.05,0.39c-0.01,0.13-0.01,0.23-0.01,0.31v0.75v3.64h-1.53v-7.94h1.53
				V822.83z"/>
			<path class="st1" d="M531.52,814.98h1.53v8.11h0.03c0.7-1.04,1.62-1.56,2.77-1.56c1.11,0,2.01,0.41,2.7,1.24
				c0.69,0.8,1.03,1.77,1.03,2.92c0,1.21-0.35,2.23-1.02,3.05c-0.68,0.83-1.6,1.24-2.78,1.24c-0.54,0-1.05-0.13-1.52-0.4
				c-0.47-0.26-0.86-0.63-1.18-1.11h-0.03v1.24h-1.53V814.98z M535.46,828.62c0.81,0,1.43-0.27,1.89-0.83
				c0.46-0.56,0.69-1.25,0.69-2.05c0-0.79-0.23-1.47-0.69-2.02c-0.45-0.55-1.08-0.82-1.89-0.82c-0.76,0-1.37,0.27-1.83,0.85
				c-0.45,0.55-0.68,1.22-0.68,2c0,0.8,0.22,1.49,0.68,2.03C534.1,828.34,534.71,828.62,535.46,828.62z"/>
			<path class="st1" d="M539.79,821.77h1.78l2.68,5.04l2.49-5.04h1.72l-6.43,12.48h-1.73l3.12-5.9L539.79,821.77z"/>
			<path class="st1" d="M556.16,826.5l-1.46,3.21h-1.71l6.11-13.33l6.1,13.33h-1.71l-1.45-3.21H556.16z M559.09,819.87l-2.28,5.17
				h4.55L559.09,819.87z"/>
			<path class="st1" d="M567.69,829.71h-1.52v-14.72h1.52V829.71z"/>
			<path class="st1" d="M571.46,829.71h-1.53v-14.72h1.53V829.71z"/>
			<path class="st1" d="M577.26,823.64v1.27h-3.71v-1.27H577.26z"/>
			<path class="st1" d="M583.19,816.53c-0.47-0.22-0.81-0.32-1.01-0.32c-0.33,0-0.57,0.1-0.71,0.31c-0.15,0.21-0.25,0.46-0.31,0.77
				c-0.03,0.22-0.05,0.4-0.06,0.53c0,0.13,0,0.31,0,0.54v3.4h2.1v1.42h-2.1v6.51h-1.53v-6.51h-0.69v-1.42h0.69v-3.86
				c0-2.08,0.86-3.13,2.57-3.13c0.37,0,0.73,0.07,1.06,0.21V816.53z"/>
			<path class="st1" d="M585.55,823.05h0.05c0.19-0.47,0.47-0.85,0.85-1.12c0.38-0.27,0.82-0.41,1.32-0.41
				c0.42,0,0.83,0.13,1.26,0.39l-0.7,1.39c-0.25-0.22-0.56-0.32-0.93-0.32c-0.79,0-1.3,0.32-1.56,0.95
				c-0.11,0.29-0.19,0.59-0.23,0.87c-0.04,0.28-0.06,0.62-0.06,1v3.9h-1.52v-7.94h1.52V823.05z"/>
			<path class="st1" d="M590.79,825.99c0.02,0.71,0.25,1.33,0.68,1.85c0.44,0.52,1,0.78,1.71,0.78c0.55,0,1.01-0.12,1.37-0.38
				c0.36-0.26,0.69-0.64,1.01-1.16l1.29,0.73c-0.37,0.68-0.88,1.21-1.53,1.59c-0.65,0.38-1.37,0.58-2.15,0.58
				c-1.18,0-2.14-0.4-2.84-1.19c-0.7-0.81-1.05-1.8-1.05-2.99c0-1.25,0.33-2.29,1-3.09c0.66-0.79,1.61-1.18,2.87-1.18
				c1.22,0,2.15,0.39,2.77,1.18c0.63,0.79,0.94,1.8,0.94,3.04v0.24H590.79z M595.32,824.84c-0.09-0.61-0.33-1.1-0.7-1.45
				c-0.38-0.35-0.87-0.54-1.49-0.54c-0.29,0-0.57,0.05-0.82,0.15c-0.25,0.09-0.48,0.24-0.67,0.41c-0.2,0.19-0.36,0.4-0.5,0.64
				c-0.13,0.24-0.21,0.51-0.26,0.79H595.32z"/>
			<path class="st1" d="M599.07,825.99c0.02,0.71,0.24,1.33,0.67,1.85c0.44,0.52,1.01,0.78,1.71,0.78c0.56,0,1.01-0.12,1.36-0.38
				c0.36-0.26,0.69-0.64,1.01-1.16l1.29,0.73c-0.37,0.68-0.87,1.21-1.53,1.59c-0.65,0.38-1.37,0.58-2.15,0.58
				c-1.19,0-2.14-0.4-2.85-1.19c-0.7-0.81-1.05-1.8-1.05-2.99c0-1.25,0.33-2.29,1-3.09c0.65-0.79,1.61-1.18,2.86-1.18
				c1.21,0,2.14,0.39,2.76,1.18c0.64,0.79,0.95,1.8,0.95,3.04v0.24H599.07z M603.6,824.84c-0.09-0.61-0.33-1.1-0.71-1.45
				c-0.38-0.35-0.87-0.54-1.48-0.54c-0.3,0-0.57,0.05-0.83,0.15c-0.25,0.09-0.48,0.24-0.67,0.41c-0.2,0.19-0.37,0.4-0.49,0.64
				c-0.13,0.24-0.22,0.51-0.27,0.79H603.6z"/>
			<path class="st1" d="M610.06,823.64v1.27h-3.72v-1.27H610.06z"/>
			<path class="st1" d="M617.98,828.47h-0.04c-0.31,0.48-0.71,0.85-1.18,1.11c-0.47,0.27-0.98,0.4-1.52,0.4
				c-1.18,0-2.1-0.41-2.78-1.24c-0.68-0.83-1.03-1.85-1.03-3.05c0-1.15,0.35-2.12,1.04-2.92c0.69-0.82,1.59-1.24,2.7-1.24
				c1.14,0,2.06,0.52,2.76,1.56h0.04v-8.11h1.52v14.72h-1.52V828.47z M615.48,828.62c0.8,0,1.43-0.27,1.88-0.83
				c0.46-0.56,0.7-1.25,0.7-2.05c0-0.79-0.24-1.47-0.7-2.02c-0.45-0.55-1.08-0.82-1.88-0.82c-0.76,0-1.37,0.27-1.83,0.85
				c-0.45,0.55-0.68,1.22-0.68,2c0,0.8,0.23,1.49,0.68,2.03C614.11,828.34,614.73,828.62,615.48,828.62z"/>
			<path class="st1" d="M622,822.75c0.83-0.81,1.83-1.22,3.02-1.22c1.18,0,2.18,0.41,2.99,1.22c0.83,0.81,1.24,1.82,1.24,3.01
				c0,1.18-0.41,2.18-1.24,3.01c-0.81,0.81-1.81,1.22-2.99,1.22c-1.19,0-2.2-0.41-3.02-1.22c-0.81-0.82-1.22-1.82-1.22-3.01
				C620.77,824.57,621.18,823.56,622,822.75z M622.3,825.76c0,0.73,0.27,1.38,0.8,1.94c0.52,0.55,1.16,0.82,1.92,0.82
				c0.74,0,1.38-0.27,1.91-0.82c0.53-0.56,0.8-1.21,0.8-1.94c0-0.75-0.26-1.4-0.8-1.95c-0.53-0.54-1.17-0.81-1.91-0.81
				c-0.76,0-1.4,0.27-1.92,0.81C622.57,824.35,622.3,825.01,622.3,825.76z"/>
			<path class="st1" d="M633.36,826.83l2.33-5.5l2.33,5.5l2.31-5.06h1.72l-4.04,8.21l-2.33-5.31l-2.33,5.31l-4.04-8.21h1.73
				L633.36,826.83z"/>
			<path class="st1" d="M644.35,822.83h0.03c0.22-0.41,0.55-0.74,0.98-0.96c0.43-0.23,0.9-0.34,1.41-0.34
				c0.52,0,0.97,0.08,1.33,0.24c0.36,0.16,0.65,0.39,0.88,0.68c0.22,0.29,0.38,0.66,0.47,1.07c0.1,0.43,0.15,0.91,0.15,1.45v4.73
				h-1.52v-4.54c0-0.78-0.1-1.35-0.34-1.72c-0.23-0.37-0.69-0.56-1.41-0.56c-0.25,0-0.48,0.02-0.66,0.07
				c-0.18,0.05-0.34,0.13-0.48,0.22c-0.13,0.1-0.25,0.21-0.34,0.33c-0.09,0.12-0.18,0.26-0.25,0.41c-0.03,0.08-0.07,0.18-0.09,0.3
				c-0.03,0.12-0.06,0.25-0.08,0.39c-0.02,0.13-0.04,0.25-0.06,0.39c0,0.13-0.01,0.23-0.01,0.31v0.75v3.64h-1.53v-7.94h1.53V822.83z
				"/>
			<path class="st1" d="M653.29,829.71h-1.53v-14.72h1.53V829.71z"/>
			<path class="st1" d="M655.97,822.75c0.82-0.81,1.83-1.22,3.02-1.22c1.19,0,2.18,0.41,3,1.22c0.82,0.81,1.23,1.82,1.23,3.01
				c0,1.18-0.41,2.18-1.23,3.01c-0.82,0.81-1.82,1.22-3,1.22c-1.19,0-2.2-0.41-3.02-1.22c-0.82-0.82-1.22-1.82-1.22-3.01
				C654.75,824.57,655.15,823.56,655.97,822.75z M656.27,825.76c0,0.73,0.27,1.38,0.79,1.94c0.52,0.55,1.16,0.82,1.92,0.82
				c0.74,0,1.38-0.27,1.92-0.82c0.53-0.56,0.79-1.21,0.79-1.94c0-0.75-0.27-1.4-0.79-1.95c-0.54-0.54-1.18-0.81-1.92-0.81
				c-0.76,0-1.4,0.27-1.92,0.81C656.54,824.35,656.27,825.01,656.27,825.76z"/>
			<path class="st1" d="M672.07,829.71h-1.53v-1.24h-0.03c-0.68,1-1.58,1.51-2.7,1.51c-1.16,0-2.09-0.41-2.78-1.24
				c-0.68-0.83-1.02-1.85-1.02-3.05c0-1.15,0.34-2.12,1.04-2.92c0.69-0.82,1.6-1.24,2.71-1.24c1.14,0,2.05,0.52,2.75,1.56h0.03
				v-1.32h1.53V829.71z M668.04,828.62c0.81,0,1.43-0.27,1.88-0.83c0.46-0.56,0.69-1.25,0.69-2.05c0-0.79-0.23-1.47-0.69-2.02
				c-0.45-0.55-1.07-0.82-1.88-0.82c-0.76,0-1.37,0.27-1.83,0.85c-0.45,0.55-0.69,1.22-0.69,2c0,0.8,0.23,1.49,0.69,2.03
				C666.68,828.34,667.29,828.62,668.04,828.62z"/>
			<path class="st1" d="M679.96,828.47h-0.03c-0.32,0.48-0.72,0.85-1.18,1.11c-0.47,0.27-0.98,0.4-1.52,0.4
				c-1.18,0-2.11-0.41-2.79-1.24c-0.68-0.83-1.02-1.85-1.02-3.05c0-1.15,0.35-2.12,1.04-2.92c0.69-0.82,1.59-1.24,2.7-1.24
				c1.14,0,2.05,0.52,2.76,1.56h0.03v-8.11h1.53v14.72h-1.53V828.47z M677.47,828.62c0.8,0,1.43-0.27,1.88-0.83
				c0.46-0.56,0.7-1.25,0.7-2.05c0-0.79-0.23-1.47-0.7-2.02c-0.45-0.55-1.08-0.82-1.88-0.82c-0.76,0-1.37,0.27-1.83,0.85
				c-0.45,0.55-0.68,1.22-0.68,2c0,0.8,0.23,1.49,0.68,2.03C676.1,828.34,676.71,828.62,677.47,828.62z"/>
			<path class="st1" d="M685.87,828.99c0,0.27-0.09,0.5-0.28,0.69c-0.2,0.19-0.43,0.29-0.71,0.29c-0.27,0-0.5-0.1-0.69-0.29
				c-0.2-0.19-0.29-0.42-0.29-0.69c0-0.26,0.1-0.49,0.29-0.69c0.19-0.2,0.42-0.29,0.69-0.29c0.27,0,0.51,0.1,0.71,0.29
				C685.77,828.5,685.87,828.73,685.87,828.99z"/>
			<path class="st1" d="M694.21,824.02c-0.63-0.71-1.39-1.07-2.27-1.07c-0.74,0-1.37,0.28-1.89,0.83c-0.51,0.56-0.76,1.22-0.76,1.95
				c0,0.83,0.24,1.5,0.76,2.02c0.53,0.54,1.2,0.8,1.98,0.8c0.81,0,1.54-0.36,2.17-1.05v1.95c-0.66,0.35-1.38,0.53-2.19,0.53
				c-1.18,0-2.18-0.41-3.02-1.21c-0.82-0.79-1.23-1.78-1.23-2.96c0-1.22,0.41-2.25,1.23-3.06c0.83-0.81,1.87-1.22,3.11-1.22
				c0.82,0,1.52,0.18,2.1,0.52V824.02z"/>
			<path class="st1" d="M696.37,822.75c0.83-0.81,1.83-1.22,3.02-1.22c1.19,0,2.19,0.41,3,1.22c0.83,0.81,1.24,1.82,1.24,3.01
				c0,1.18-0.41,2.18-1.24,3.01c-0.81,0.81-1.81,1.22-3,1.22c-1.18,0-2.19-0.41-3.02-1.22c-0.81-0.82-1.22-1.82-1.22-3.01
				C695.14,824.57,695.55,823.56,696.37,822.75z M696.67,825.76c0,0.73,0.27,1.38,0.8,1.94c0.51,0.55,1.16,0.82,1.92,0.82
				c0.74,0,1.39-0.27,1.92-0.82c0.53-0.56,0.8-1.21,0.8-1.94c0-0.75-0.26-1.4-0.8-1.95c-0.53-0.54-1.17-0.81-1.92-0.81
				c-0.75,0-1.4,0.27-1.92,0.81C696.94,824.35,696.67,825.01,696.67,825.76z"/>
			<path class="st1" d="M706.49,822.77h0.03c0.22-0.36,0.52-0.66,0.91-0.89c0.38-0.24,0.78-0.35,1.19-0.35
				c0.99,0,1.75,0.47,2.29,1.41c0.25-0.43,0.59-0.78,1.03-1.03c0.43-0.25,0.91-0.38,1.41-0.38c1.76,0,2.63,1.14,2.63,3.42v4.75
				h-1.52v-4.5c0-0.2-0.01-0.4-0.03-0.6c-0.01-0.21-0.05-0.4-0.09-0.58c-0.05-0.19-0.11-0.36-0.2-0.52
				c-0.09-0.15-0.22-0.3-0.37-0.42c-0.2-0.14-0.47-0.2-0.78-0.2c-0.32,0-0.59,0.06-0.81,0.2c-0.22,0.12-0.38,0.28-0.51,0.46
				c-0.12,0.19-0.21,0.43-0.28,0.71c-0.07,0.28-0.11,0.54-0.13,0.77c-0.02,0.22-0.03,0.48-0.03,0.78v3.9h-1.53v-4.21
				c0-0.27,0-0.49-0.01-0.68c-0.02-0.19-0.05-0.41-0.11-0.68c-0.05-0.29-0.13-0.51-0.22-0.65c-0.09-0.16-0.24-0.29-0.42-0.42
				c-0.2-0.12-0.42-0.18-0.7-0.18c-0.78,0-1.29,0.33-1.51,1.01c-0.1,0.32-0.17,0.61-0.2,0.9c-0.04,0.28-0.05,0.61-0.05,1v3.9h-1.53
				v-7.94h1.53V822.77z"/>
		</g>
		<g>
			<g>
				<path class="st1" d="M442.53,825.02c7.2,0,14.4,0,21.6,0c0.65,0,0.65-1.01,0-1.01c-7.2,0-14.4,0-21.6,0
					C441.88,824.01,441.88,825.02,442.53,825.02L442.53,825.02z"/>
			</g>
			<g>
				<path class="st1" d="M729.96,825.02c7.2,0,14.4,0,21.6,0c0.66,0,0.66-1.01,0-1.01c-7.2,0-14.4,0-21.6,0
					C729.31,824.01,729.31,825.02,729.96,825.02L729.96,825.02z"/>
			</g>
		</g>
	</g>
</g>
<rect class="st1" width="1177.01" height="795.52"/>
<g>
	<linearGradient id="SVGID_1_" gradientUnits="userSpaceOnUse" x1="-229.5998" y1="516.1724" x2="574.4117" y2="516.1724">
		<stop  offset="5.376340e-03" style="stop-color:#FF3E83"/>
		<stop  offset="1" style="stop-color:#3B1194"/>
	</linearGradient>
	<path class="st2" d="M172.41,236.82c-61.7,0-120.16,14.01-172.41,39.04v519.66h544.47c19.3-47.39,29.95-99.27,29.95-153.67
		C574.41,418.16,394.43,236.82,172.41,236.82z"/>
	
		<linearGradient id="SVGID_00000088095679744914195290000005552526006101858720_" gradientUnits="userSpaceOnUse" x1="-130.9949" y1="604.936" x2="545.8413" y2="604.936">
		<stop  offset="5.376340e-03" style="stop-color:#FF3E83"/>
		<stop  offset="1" style="stop-color:#3B1194"/>
	</linearGradient>
	<path style="fill:url(#SVGID_00000088095679744914195290000005552526006101858720_);" d="M207.42,414.35
		c-78.17,0-150.13,26.73-207.42,71.58v309.6h543.49c1.54-13.19,2.35-26.6,2.35-40.21C545.84,567,394.33,414.35,207.42,414.35z"/>
	
		<linearGradient id="SVGID_00000077315918616405708540000015364320466411278759_" gradientUnits="userSpaceOnUse" x1="677.6105" y1="550.5427" x2="1427.4023" y2="550.5427">
		<stop  offset="5.376340e-03" style="stop-color:#FF3E83"/>
		<stop  offset="1" style="stop-color:#3B1194"/>
	</linearGradient>
	<path style="fill:url(#SVGID_00000077315918616405708540000015364320466411278759_);" d="M1177.1,795.52v-468.6
		c-38.98-13.83-80.91-21.36-124.59-21.36c-207.05,0-374.9,169.11-374.9,377.72c0,39.08,5.89,76.78,16.83,112.24H1177.1z"/>
	
		<linearGradient id="SVGID_00000000915228452804996470000013056476372468566160_" gradientUnits="userSpaceOnUse" x1="858.6691" y1="640.0587" x2="1246.3436" y2="640.0587">
		<stop  offset="5.376340e-03" style="stop-color:#FF3E83"/>
		<stop  offset="1" style="stop-color:#3B1194"/>
	</linearGradient>
	<path style="fill:url(#SVGID_00000000915228452804996470000013056476372468566160_);" d="M1177.1,795.52V530.29
		c-33.69-28.51-77.15-45.7-124.59-45.7c-107.05,0-193.84,87.44-193.84,195.3c0,43.28,13.98,83.26,37.63,115.63H1177.1z"/>
	
		<linearGradient id="SVGID_00000156573932414352719680000013872654928299869622_" gradientUnits="userSpaceOnUse" x1="886.758" y1="132.5191" x2="1381.6687" y2="132.5191">
		<stop  offset="5.376340e-03" style="stop-color:#FF3E83"/>
		<stop  offset="1" style="stop-color:#3B1194"/>
	</linearGradient>
	<path style="fill:url(#SVGID_00000156573932414352719680000013872654928299869622_);" d="M1177.1,0H887.26
		c-0.32,5.2-0.5,10.44-0.5,15.72c0,137.7,110.79,249.32,247.46,249.32c14.63,0,28.96-1.29,42.89-3.74V0z"/>
	<g>
		
			<linearGradient id="SVGID_00000080207583708817737180000010739038040964742815_" gradientUnits="userSpaceOnUse" x1="13.6547" y1="108.3075" x2="597.2884" y2="108.3075">
			<stop  offset="5.376340e-03" style="stop-color:#FF3E83"/>
			<stop  offset="1" style="stop-color:#3B1194"/>
		</linearGradient>
		<path style="fill:url(#SVGID_00000080207583708817737180000010739038040964742815_);" d="M23.9,0
			c33.72,124.82,147,216.62,281.58,216.62S553.33,124.82,587.05,0H23.9z"/>
		
			<linearGradient id="SVGID_00000130634509573566148100000017234709705636522896_" gradientUnits="userSpaceOnUse" x1="69.0635" y1="-230.3318" x2="521.9534" y2="-230.3318" gradientTransform="matrix(-1 0 0 -1 600.9799 -154.9565)">
			<stop  offset="5.376340e-03" style="stop-color:#FF3E83"/>
			<stop  offset="1" style="stop-color:#3B1194"/>
		</linearGradient>
		<path style="fill:url(#SVGID_00000130634509573566148100000017234709705636522896_);" d="M92.4,0
			c31.46,87.9,114.98,150.75,213.07,150.75S487.08,87.9,518.54,0H92.4z"/>
		
			<linearGradient id="SVGID_00000104684767241758821830000006787084810346501555_" gradientUnits="userSpaceOnUse" x1="146.7266" y1="41.2702" x2="464.2164" y2="41.2702">
			<stop  offset="5.376340e-03" style="stop-color:#FF3E83"/>
			<stop  offset="1" style="stop-color:#3B1194"/>
		</linearGradient>
		<path style="fill:url(#SVGID_00000104684767241758821830000006787084810346501555_);" d="M166.53,0
			c27.07,49.22,79.14,82.54,138.94,82.54S417.34,49.22,444.41,0H166.53z"/>
		
			<linearGradient id="SVGID_00000117637315423042599880000007966930819400906156_" gradientUnits="userSpaceOnUse" x1="192.3799" y1="-135.7862" x2="402.4834" y2="-135.7862" gradientTransform="matrix(-0.7071 0.7071 -0.7071 -0.7071 458.1831 -344.7422)">
			<stop  offset="5.376340e-03" style="stop-color:#FF3E83"/>
			<stop  offset="1" style="stop-color:#3B1194"/>
		</linearGradient>
		<path style="fill:url(#SVGID_00000117637315423042599880000007966930819400906156_);" d="M233.83,0
			c40.3,37.91,102.99,37.91,143.29,0H233.83z"/>
	</g>
	
		<linearGradient id="SVGID_00000163034037263031680360000003843291535730480264_" gradientUnits="userSpaceOnUse" x1="1110.0715" y1="568.6035" x2="1195.5515" y2="654.0835">
		<stop  offset="0" style="stop-color:#FFD727"/>
		<stop  offset="1" style="stop-color:#FF3E83"/>
	</linearGradient>
	
		<path style="fill:none;stroke:url(#SVGID_00000163034037263031680360000003843291535730480264_);stroke-width:2;stroke-miterlimit:10;" d="
		M1172.05,676.43c-30.13,4.91-60.45-12.61-71.45-41.29c-10.93-28.49-0.5-61.81,24.79-78.72c13.57-9.07,30.36-12.78,46.45-10.23"/>
	<g>
		<g>
			<ellipse class="st1" cx="328.68" cy="622.89" rx="3.37" ry="3.39"/>
			<ellipse class="st1" cx="328.68" cy="650.01" rx="3.37" ry="3.39"/>
			<ellipse class="st1" cx="328.68" cy="677.14" rx="3.37" ry="3.39"/>
			<ellipse class="st1" cx="328.68" cy="704.27" rx="3.37" ry="3.39"/>
			<ellipse class="st1" cx="303.75" cy="622.89" rx="3.37" ry="3.39"/>
			<ellipse class="st1" cx="303.75" cy="650.01" rx="3.37" ry="3.39"/>
			<ellipse class="st1" cx="303.75" cy="677.14" rx="3.37" ry="3.39"/>
			<ellipse class="st1" cx="303.75" cy="704.27" rx="3.37" ry="3.39"/>
			<path class="st1" d="M278.83,626.28c-1.86,0-3.37-1.52-3.37-3.39s1.51-3.39,3.37-3.39c1.86,0,3.37,1.52,3.37,3.39
				S280.69,626.28,278.83,626.28z"/>
			<path class="st1" d="M278.83,653.4c-1.86,0-3.37-1.52-3.37-3.39s1.51-3.39,3.37-3.39c1.86,0,3.37,1.52,3.37,3.39
				S280.69,653.4,278.83,653.4z"/>
			<path class="st1" d="M278.83,680.53c-1.86,0-3.37-1.52-3.37-3.39s1.51-3.39,3.37-3.39c1.86,0,3.37,1.52,3.37,3.39
				S280.69,680.53,278.83,680.53z"/>
			<path class="st1" d="M278.83,707.66c-1.86,0-3.37-1.52-3.37-3.39c0-1.87,1.51-3.39,3.37-3.39c1.86,0,3.37,1.52,3.37,3.39
				C282.2,706.14,280.69,707.66,278.83,707.66z"/>
			<path class="st1" d="M253.91,626.28c-1.86,0-3.37-1.52-3.37-3.39s1.51-3.39,3.37-3.39c1.86,0,3.37,1.52,3.37,3.39
				S255.76,626.28,253.91,626.28z"/>
			<path class="st1" d="M253.91,653.4c-1.86,0-3.37-1.52-3.37-3.39s1.51-3.39,3.37-3.39c1.86,0,3.37,1.52,3.37,3.39
				S255.76,653.4,253.91,653.4z"/>
			<path class="st1" d="M253.91,680.53c-1.86,0-3.37-1.52-3.37-3.39s1.51-3.39,3.37-3.39c1.86,0,3.37,1.52,3.37,3.39
				S255.76,680.53,253.91,680.53z"/>
			<path class="st1" d="M253.91,707.66c-1.86,0-3.37-1.52-3.37-3.39c0-1.87,1.51-3.39,3.37-3.39c1.86,0,3.37,1.52,3.37,3.39
				C257.27,706.14,255.76,707.66,253.91,707.66z"/>
			<path class="st1" d="M228.98,626.28c-1.86,0-3.37-1.52-3.37-3.39s1.51-3.39,3.37-3.39c1.86,0,3.37,1.52,3.37,3.39
				S230.84,626.28,228.98,626.28z"/>
			<path class="st1" d="M228.98,653.4c-1.86,0-3.37-1.52-3.37-3.39s1.51-3.39,3.37-3.39c1.86,0,3.37,1.52,3.37,3.39
				S230.84,653.4,228.98,653.4z"/>
			<path class="st1" d="M228.98,680.53c-1.86,0-3.37-1.52-3.37-3.39s1.51-3.39,3.37-3.39c1.86,0,3.37,1.52,3.37,3.39
				S230.84,680.53,228.98,680.53z"/>
			<path class="st1" d="M228.98,707.66c-1.86,0-3.37-1.52-3.37-3.39c0-1.87,1.51-3.39,3.37-3.39c1.86,0,3.37,1.52,3.37,3.39
				C232.35,706.14,230.84,707.66,228.98,707.66z"/>
			<ellipse class="st1" cx="204.06" cy="622.89" rx="3.37" ry="3.39"/>
			<ellipse class="st1" cx="204.06" cy="650.01" rx="3.37" ry="3.39"/>
			<ellipse class="st1" cx="204.06" cy="677.14" rx="3.37" ry="3.39"/>
			<ellipse class="st1" cx="204.06" cy="704.27" rx="3.37" ry="3.39"/>
			<ellipse class="st1" cx="179.13" cy="622.89" rx="3.37" ry="3.39"/>
			<ellipse class="st1" cx="179.13" cy="650.01" rx="3.37" ry="3.39"/>
			<ellipse class="st1" cx="179.13" cy="677.14" rx="3.37" ry="3.39"/>
			<ellipse class="st1" cx="179.13" cy="704.27" rx="3.37" ry="3.39"/>
			<path class="st1" d="M154.21,626.28c-1.86,0-3.37-1.52-3.37-3.39s1.51-3.39,3.37-3.39c1.86,0,3.37,1.52,3.37,3.39
				S156.07,626.28,154.21,626.28z"/>
			<path class="st1" d="M154.21,653.4c-1.86,0-3.37-1.52-3.37-3.39s1.51-3.39,3.37-3.39c1.86,0,3.37,1.52,3.37,3.39
				S156.07,653.4,154.21,653.4z"/>
			<path class="st1" d="M154.21,680.53c-1.86,0-3.37-1.52-3.37-3.39s1.51-3.39,3.37-3.39c1.86,0,3.37,1.52,3.37,3.39
				S156.07,680.53,154.21,680.53z"/>
			<path class="st1" d="M154.21,707.66c-1.86,0-3.37-1.52-3.37-3.39c0-1.87,1.51-3.39,3.37-3.39c1.86,0,3.37,1.52,3.37,3.39
				C157.57,706.14,156.07,707.66,154.21,707.66z"/>
			<path class="st1" d="M129.28,626.28c-1.86,0-3.37-1.52-3.37-3.39s1.51-3.39,3.37-3.39c1.86,0,3.37,1.52,3.37,3.39
				S131.14,626.28,129.28,626.28z"/>
			<path class="st1" d="M129.28,653.4c-1.86,0-3.37-1.52-3.37-3.39s1.51-3.39,3.37-3.39c1.86,0,3.37,1.52,3.37,3.39
				S131.14,653.4,129.28,653.4z"/>
			<path class="st1" d="M129.28,680.53c-1.86,0-3.37-1.52-3.37-3.39s1.51-3.39,3.37-3.39c1.86,0,3.37,1.52,3.37,3.39
				S131.14,680.53,129.28,680.53z"/>
			<path class="st1" d="M129.28,707.66c-1.86,0-3.37-1.52-3.37-3.39c0-1.87,1.51-3.39,3.37-3.39c1.86,0,3.37,1.52,3.37,3.39
				C132.65,706.14,131.14,707.66,129.28,707.66z"/>
		</g>
		<g>
			<path class="st1" d="M105.63,626.28c-1.86,0-3.37-1.52-3.37-3.39s1.51-3.39,3.37-3.39s3.37,1.52,3.37,3.39
				S107.48,626.28,105.63,626.28z"/>
			<path class="st1" d="M105.63,653.4c-1.86,0-3.37-1.52-3.37-3.39s1.51-3.39,3.37-3.39s3.37,1.52,3.37,3.39
				S107.48,653.4,105.63,653.4z"/>
			<path class="st1" d="M105.63,680.53c-1.86,0-3.37-1.52-3.37-3.39s1.51-3.39,3.37-3.39s3.37,1.52,3.37,3.39
				S107.48,680.53,105.63,680.53z"/>
			<path class="st1" d="M105.63,707.66c-1.86,0-3.37-1.52-3.37-3.39c0-1.87,1.51-3.39,3.37-3.39s3.37,1.52,3.37,3.39
				C108.99,706.14,107.48,707.66,105.63,707.66z"/>
			<ellipse class="st1" cx="80.7" cy="622.89" rx="3.37" ry="3.39"/>
			<ellipse class="st1" cx="80.7" cy="650.01" rx="3.37" ry="3.39"/>
			<ellipse class="st1" cx="80.7" cy="677.14" rx="3.37" ry="3.39"/>
			<ellipse class="st1" cx="80.7" cy="704.27" rx="3.37" ry="3.39"/>
			<ellipse class="st1" cx="55.78" cy="622.89" rx="3.37" ry="3.39"/>
			<ellipse class="st1" cx="55.78" cy="650.01" rx="3.37" ry="3.39"/>
			<ellipse class="st1" cx="55.78" cy="677.14" rx="3.37" ry="3.39"/>
			<ellipse class="st1" cx="55.78" cy="704.27" rx="3.37" ry="3.39"/>
			<path class="st1" d="M30.85,626.28c-1.86,0-3.37-1.52-3.37-3.39s1.51-3.39,3.37-3.39c1.86,0,3.37,1.52,3.37,3.39
				S32.71,626.28,30.85,626.28z"/>
			<path class="st1" d="M30.85,653.4c-1.86,0-3.37-1.52-3.37-3.39s1.51-3.39,3.37-3.39c1.86,0,3.37,1.52,3.37,3.39
				S32.71,653.4,30.85,653.4z"/>
			<path class="st1" d="M30.85,680.53c-1.86,0-3.37-1.52-3.37-3.39s1.51-3.39,3.37-3.39c1.86,0,3.37,1.52,3.37,3.39
				S32.71,680.53,30.85,680.53z"/>
			<path class="st1" d="M30.85,707.66c-1.86,0-3.37-1.52-3.37-3.39c0-1.87,1.51-3.39,3.37-3.39c1.86,0,3.37,1.52,3.37,3.39
				C34.22,706.14,32.71,707.66,30.85,707.66z"/>
			<path class="st1" d="M5.93,626.28c-1.86,0-3.37-1.52-3.37-3.39s1.51-3.39,3.37-3.39c1.86,0,3.37,1.52,3.37,3.39
				S7.79,626.28,5.93,626.28z"/>
			<path class="st1" d="M5.93,653.4c-1.86,0-3.37-1.52-3.37-3.39s1.51-3.39,3.37-3.39c1.86,0,3.37,1.52,3.37,3.39
				S7.79,653.4,5.93,653.4z"/>
			<path class="st1" d="M5.93,680.53c-1.86,0-3.37-1.52-3.37-3.39s1.51-3.39,3.37-3.39c1.86,0,3.37,1.52,3.37,3.39
				S7.79,680.53,5.93,680.53z"/>
			<path class="st1" d="M5.93,707.66c-1.86,0-3.37-1.52-3.37-3.39c0-1.87,1.51-3.39,3.37-3.39c1.86,0,3.37,1.52,3.37,3.39
				C9.29,706.14,7.79,707.66,5.93,707.66z"/>
		</g>
	</g>
</g>
<rect class="st12" width="1177.01" height="795.52"/>
<g>
	<g>
		
			<linearGradient id="SVGID_00000179633741141933918080000001200989955602210440_" gradientUnits="userSpaceOnUse" x1="596.7937" y1="-135.6976" x2="918.1519" y2="185.6605">
			<stop  offset="0" style="stop-color:#FFD727"/>
			<stop  offset="0.1486" style="stop-color:#FFBC37;stop-opacity:0.9103"/>
			<stop  offset="0.5527" style="stop-color:#FF7960;stop-opacity:0.6666"/>
			<stop  offset="0.8454" style="stop-color:#FF4E79;stop-opacity:0.49"/>
			<stop  offset="0.9946" style="stop-color:#FF3E83;stop-opacity:0.4"/>
		</linearGradient>
		<path style="fill:url(#SVGID_00000179633741141933918080000001200989955602210440_);" d="M991.7,0c0.01,0.64,0.02,1.27,0.02,1.91
			c0,116.45-94.74,211.18-211.18,211.18c-116.45,0-211.18-94.74-211.18-211.18c0-0.64,0.02-1.27,0.02-1.91h-16
			c-0.01,0.64-0.02,1.27-0.02,1.91c0,60.73,23.62,117.79,66.5,160.68c42.89,42.89,99.95,66.5,160.68,66.5
			c60.73,0,117.79-23.62,160.68-66.5c42.88-42.88,66.5-99.95,66.5-160.68c0-0.64-0.02-1.27-0.02-1.91H991.7z"/>
	</g>
	<g>
		
			<linearGradient id="SVGID_00000163764547751301458290000017186469555721088128_" gradientUnits="userSpaceOnUse" x1="626.4164" y1="-113.6465" x2="896.1007" y2="156.0379">
			<stop  offset="0" style="stop-color:#FFD727"/>
			<stop  offset="0.1486" style="stop-color:#FFBC37;stop-opacity:0.9103"/>
			<stop  offset="0.5527" style="stop-color:#FF7960;stop-opacity:0.6666"/>
			<stop  offset="0.8454" style="stop-color:#FF4E79;stop-opacity:0.49"/>
			<stop  offset="0.9946" style="stop-color:#FF3E83;stop-opacity:0.4"/>
		</linearGradient>
		<path style="fill:url(#SVGID_00000163764547751301458290000017186469555721088128_);" d="M955.17,0c0.01,0.64,0.02,1.27,0.02,1.91
			c0,96.3-78.35,174.65-174.65,174.65c-96.3,0-174.65-78.35-174.65-174.65c0-0.64,0.02-1.27,0.02-1.91h-16
			c-0.01,0.64-0.02,1.27-0.02,1.91c0,50.96,19.82,98.85,55.81,134.84c35.99,35.99,83.88,55.81,134.84,55.81
			c50.97,0,98.85-19.82,134.84-55.81c35.99-35.99,55.81-83.88,55.81-134.84c0-0.64-0.02-1.27-0.02-1.91H955.17z"/>
	</g>
	<g>
		
			<linearGradient id="SVGID_00000076571624750476872390000017184381634186778542_" gradientUnits="userSpaceOnUse" x1="656.0393" y1="-91.5956" x2="874.0498" y2="126.4149">
			<stop  offset="0" style="stop-color:#FFD727"/>
			<stop  offset="0.1486" style="stop-color:#FFBC37;stop-opacity:0.9103"/>
			<stop  offset="0.5527" style="stop-color:#FF7960;stop-opacity:0.6666"/>
			<stop  offset="0.8454" style="stop-color:#FF4E79;stop-opacity:0.49"/>
			<stop  offset="0.9946" style="stop-color:#FF3E83;stop-opacity:0.4"/>
		</linearGradient>
		<path style="fill:url(#SVGID_00000076571624750476872390000017184381634186778542_);" d="M918.64,0c0.01,0.64,0.02,1.27,0.02,1.91
			c0,76.16-61.96,138.12-138.12,138.12S642.42,78.07,642.42,1.91c0-0.64,0.02-1.27,0.02-1.91h-16c-0.01,0.64-0.02,1.27-0.02,1.91
			c0,41.2,16.02,79.91,45.12,109s67.81,45.12,109.01,45.12c41.2,0,79.91-16.02,109.01-45.12c29.09-29.09,45.12-67.81,45.12-109
			c0-0.64-0.02-1.27-0.02-1.91H918.64z"/>
	</g>
	<g>
		
			<linearGradient id="SVGID_00000023270718151554477640000006285082276759939003_" gradientUnits="userSpaceOnUse" x1="685.7485" y1="-69.5152" x2="851.9698" y2="96.7061">
			<stop  offset="0" style="stop-color:#FFD727"/>
			<stop  offset="0.1486" style="stop-color:#FFBC37;stop-opacity:0.9103"/>
			<stop  offset="0.5527" style="stop-color:#FF7960;stop-opacity:0.6666"/>
			<stop  offset="0.8454" style="stop-color:#FF4E79;stop-opacity:0.49"/>
			<stop  offset="0.9946" style="stop-color:#FF3E83;stop-opacity:0.4"/>
		</linearGradient>
		<path style="fill:url(#SVGID_00000023270718151554477640000006285082276759939003_);" d="M882.11,0c0.01,0.64,0.02,1.27,0.02,1.91
			c0,56.02-45.57,101.59-101.59,101.59c-56.02,0-101.59-45.57-101.59-101.59c0-0.64,0.01-1.27,0.02-1.91h-16
			c-0.01,0.64-0.02,1.27-0.02,1.91c0,64.84,52.75,117.59,117.59,117.59c64.84,0,117.59-52.75,117.59-117.59
			c0-0.64-0.01-1.27-0.02-1.91H882.11z"/>
	</g>
	<g>
		
			<linearGradient id="SVGID_00000014597888050426191420000016466690357694428050_" gradientUnits="userSpaceOnUse" x1="715.3379" y1="-47.4674" x2="829.9216" y2="67.1163">
			<stop  offset="0" style="stop-color:#FFD727"/>
			<stop  offset="0.1486" style="stop-color:#FFBC37;stop-opacity:0.9103"/>
			<stop  offset="0.5527" style="stop-color:#FF7960;stop-opacity:0.6666"/>
			<stop  offset="0.8454" style="stop-color:#FF4E79;stop-opacity:0.49"/>
			<stop  offset="0.9946" style="stop-color:#FF3E83;stop-opacity:0.4"/>
		</linearGradient>
		<path style="fill:url(#SVGID_00000014597888050426191420000016466690357694428050_);" d="M845.56,0c0.02,0.64,0.05,1.27,0.05,1.91
			c0,35.87-29.19,65.06-65.06,65.06c-35.88,0-65.06-29.19-65.06-65.06c0-0.64,0.03-1.27,0.05-1.91h-16
			c-0.01,0.64-0.05,1.27-0.05,1.91c0,44.7,36.36,81.06,81.06,81.06c44.7,0,81.06-36.36,81.06-81.06c0-0.64-0.03-1.27-0.05-1.91
			H845.56z"/>
	</g>
</g>
<linearGradient id="SVGID_00000072250581009581859250000012712128622442800811_" gradientUnits="userSpaceOnUse" x1="1017.9689" y1="-327.6787" x2="1194.1505" y2="-151.4971" gradientTransform="matrix(-0.6914 0.7225 -0.7225 -0.6914 1025.752 -740.8941)">
	<stop  offset="0" style="stop-color:#FFD727"/>
	<stop  offset="1" style="stop-color:#FF3E83"/>
</linearGradient>
<path style="fill:none;stroke:url(#SVGID_00000072250581009581859250000012712128622442800811_);stroke-width:2;stroke-miterlimit:10;" d="
	M519.18,116.34c49.31,47.19,51.03,125.41,3.84,174.73c-47.19,49.31-125.41,51.03-174.73,3.84s-51.03-125.41-3.84-174.73"/>
<linearGradient id="SVGID_00000088853048812561500120000011268179942514057626_" gradientUnits="userSpaceOnUse" x1="370.0267" y1="606.6285" x2="577.3256" y2="399.3295">
	<stop  offset="0" style="stop-color:#3B1194"/>
	<stop  offset="0.9946" style="stop-color:#FF3E83"/>
</linearGradient>
<path style="opacity:0.48;fill:url(#SVGID_00000088853048812561500120000011268179942514057626_);" d="M473.68,356.4
	c-80.96,0-146.58,65.63-146.58,146.58c0,80.96,65.63,146.58,146.58,146.58c80.96,0,146.58-65.63,146.58-146.58
	C620.26,422.02,554.63,356.4,473.68,356.4z M473.68,542.92c-22.06,0-39.94-17.88-39.94-39.94c0-22.06,17.88-39.94,39.94-39.94
	c22.06,0,39.94,17.88,39.94,39.94C513.61,525.04,495.73,542.92,473.68,542.92z"/>
<g>
	<circle class="st1" cx="993.66" cy="561.89" r="3.38"/>
	<circle class="st1" cx="1020.74" cy="561.89" r="3.38"/>
	<circle class="st1" cx="1047.82" cy="561.89" r="3.38"/>
	<circle class="st1" cx="993.66" cy="586.96" r="3.38"/>
	<circle class="st1" cx="1020.74" cy="586.96" r="3.38"/>
	<circle class="st1" cx="1047.82" cy="586.96" r="3.38"/>
	<path class="st1" d="M997.05,612.03c0,1.87-1.52,3.38-3.38,3.38c-1.87,0-3.38-1.52-3.38-3.38s1.52-3.39,3.38-3.39
		C995.53,608.64,997.05,610.16,997.05,612.03z"/>
	<path class="st1" d="M1024.12,612.03c0,1.87-1.52,3.38-3.38,3.38s-3.38-1.52-3.38-3.38s1.52-3.39,3.38-3.39
		S1024.12,610.16,1024.12,612.03z"/>
	<path class="st1" d="M1051.2,612.03c0,1.87-1.52,3.38-3.38,3.38c-1.87,0-3.38-1.52-3.38-3.38s1.52-3.39,3.38-3.39
		C1049.69,608.64,1051.2,610.16,1051.2,612.03z"/>
	<path class="st1" d="M997.05,637.09c0,1.87-1.52,3.39-3.38,3.39c-1.87,0-3.38-1.52-3.38-3.39c0-1.87,1.52-3.38,3.38-3.38
		C995.53,633.71,997.05,635.22,997.05,637.09z"/>
	<path class="st1" d="M1024.12,637.09c0,1.87-1.52,3.39-3.38,3.39s-3.38-1.52-3.38-3.39c0-1.87,1.52-3.38,3.38-3.38
		S1024.12,635.22,1024.12,637.09z"/>
	<path class="st1" d="M1051.2,637.09c0,1.87-1.52,3.39-3.38,3.39c-1.87,0-3.38-1.52-3.38-3.39c0-1.87,1.52-3.38,3.38-3.38
		C1049.69,633.71,1051.2,635.22,1051.2,637.09z"/>
	<circle class="st1" cx="993.66" cy="662.16" r="3.38"/>
	<circle class="st1" cx="1020.74" cy="662.16" r="3.38"/>
	<circle class="st1" cx="1047.82" cy="662.16" r="3.38"/>
	<circle class="st1" cx="993.66" cy="687.23" r="3.38"/>
	<circle class="st1" cx="1020.74" cy="687.23" r="3.38"/>
	<circle class="st1" cx="1047.82" cy="687.23" r="3.38"/>
	<circle class="st1" cx="993.66" cy="712.29" r="3.38"/>
	<circle class="st1" cx="1020.74" cy="712.29" r="3.38"/>
	<circle class="st1" cx="1047.82" cy="712.29" r="3.38"/>
	<path class="st1" d="M997.05,737.36c0,1.87-1.52,3.38-3.38,3.38c-1.87,0-3.38-1.52-3.38-3.38c0-1.87,1.52-3.39,3.38-3.39
		C995.53,733.98,997.05,735.49,997.05,737.36z"/>
	<path class="st1" d="M1024.12,737.36c0,1.87-1.52,3.38-3.38,3.38s-3.38-1.52-3.38-3.38c0-1.87,1.52-3.39,3.38-3.39
		S1024.12,735.49,1024.12,737.36z"/>
	<path class="st1" d="M1051.2,737.36c0,1.87-1.52,3.38-3.38,3.38c-1.87,0-3.38-1.52-3.38-3.38c0-1.87,1.52-3.39,3.38-3.39
		C1049.69,733.98,1051.2,735.49,1051.2,737.36z"/>
	<path class="st1" d="M997.05,762.43c0,1.87-1.52,3.39-3.38,3.39c-1.87,0-3.38-1.52-3.38-3.39c0-1.87,1.52-3.38,3.38-3.38
		C995.53,759.04,997.05,760.56,997.05,762.43z"/>
	<path class="st1" d="M1024.12,762.43c0,1.87-1.52,3.39-3.38,3.39s-3.38-1.52-3.38-3.39c0-1.87,1.52-3.38,3.38-3.38
		S1024.12,760.56,1024.12,762.43z"/>
	<path class="st1" d="M1051.2,762.43c0,1.87-1.52,3.39-3.38,3.39c-1.87,0-3.38-1.52-3.38-3.39c0-1.87,1.52-3.38,3.38-3.38
		C1049.69,759.04,1051.2,760.56,1051.2,762.43z"/>
</g>
<g>
	<path class="st1" d="M1027.51,20.3c0,1.87-1.52,3.38-3.38,3.38c-1.87,0-3.38-1.52-3.38-3.38s1.52-3.38,3.38-3.38
		C1025.99,16.92,1027.51,18.43,1027.51,20.3z"/>
	<path class="st1" d="M1054.59,20.3c0,1.87-1.52,3.38-3.38,3.38c-1.87,0-3.39-1.52-3.39-3.38s1.52-3.38,3.39-3.38
		C1053.07,16.92,1054.59,18.43,1054.59,20.3z"/>
	<path class="st1" d="M1081.67,20.3c0,1.87-1.52,3.38-3.38,3.38s-3.39-1.52-3.39-3.38s1.52-3.38,3.39-3.38
		S1081.67,18.43,1081.67,20.3z"/>
	<path class="st1" d="M1108.75,20.3c0,1.87-1.52,3.38-3.38,3.38c-1.87,0-3.39-1.52-3.39-3.38s1.52-3.38,3.39-3.38
		C1107.23,16.92,1108.75,18.43,1108.75,20.3z"/>
	<path class="st1" d="M1135.83,20.3c0,1.87-1.52,3.38-3.38,3.38c-1.87,0-3.39-1.52-3.39-3.38s1.52-3.38,3.39-3.38
		C1134.31,16.92,1135.83,18.43,1135.83,20.3z"/>
	<path class="st1" d="M1162.9,20.3c0,1.87-1.52,3.38-3.38,3.38c-1.87,0-3.39-1.52-3.39-3.38s1.52-3.38,3.39-3.38
		C1161.39,16.92,1162.9,18.43,1162.9,20.3z"/>
	<path class="st1" d="M1027.51,45.37c0,1.87-1.52,3.38-3.38,3.38c-1.87,0-3.38-1.52-3.38-3.38c0-1.87,1.52-3.38,3.38-3.38
		C1025.99,41.98,1027.51,43.5,1027.51,45.37z"/>
	<path class="st1" d="M1054.59,45.37c0,1.87-1.52,3.38-3.38,3.38c-1.87,0-3.39-1.52-3.39-3.38c0-1.87,1.52-3.38,3.39-3.38
		C1053.07,41.98,1054.59,43.5,1054.59,45.37z"/>
	<path class="st1" d="M1081.67,45.37c0,1.87-1.52,3.38-3.38,3.38s-3.39-1.52-3.39-3.38c0-1.87,1.52-3.38,3.39-3.38
		S1081.67,43.5,1081.67,45.37z"/>
	<path class="st1" d="M1108.75,45.37c0,1.87-1.52,3.38-3.38,3.38c-1.87,0-3.39-1.52-3.39-3.38c0-1.87,1.52-3.38,3.39-3.38
		C1107.23,41.98,1108.75,43.5,1108.75,45.37z"/>
	<path class="st1" d="M1135.83,45.37c0,1.87-1.52,3.38-3.38,3.38c-1.87,0-3.39-1.52-3.39-3.38c0-1.87,1.52-3.38,3.39-3.38
		C1134.31,41.98,1135.83,43.5,1135.83,45.37z"/>
	<path class="st1" d="M1162.9,45.37c0,1.87-1.52,3.38-3.38,3.38c-1.87,0-3.39-1.52-3.39-3.38c0-1.87,1.52-3.38,3.39-3.38
		C1161.39,41.98,1162.9,43.5,1162.9,45.37z"/>
	<path class="st1" d="M1027.51,70.44c0,1.87-1.52,3.39-3.38,3.39c-1.87,0-3.38-1.52-3.38-3.39c0-1.87,1.52-3.38,3.38-3.38
		C1025.99,67.05,1027.51,68.57,1027.51,70.44z"/>
	<path class="st1" d="M1054.59,70.44c0,1.87-1.52,3.39-3.38,3.39c-1.87,0-3.39-1.52-3.39-3.39c0-1.87,1.52-3.38,3.39-3.38
		C1053.07,67.05,1054.59,68.57,1054.59,70.44z"/>
	<path class="st1" d="M1081.67,70.44c0,1.87-1.52,3.39-3.38,3.39s-3.39-1.52-3.39-3.39c0-1.87,1.52-3.38,3.39-3.38
		S1081.67,68.57,1081.67,70.44z"/>
	<path class="st1" d="M1108.75,70.44c0,1.87-1.52,3.39-3.38,3.39c-1.87,0-3.39-1.52-3.39-3.39c0-1.87,1.52-3.38,3.39-3.38
		C1107.23,67.05,1108.75,68.57,1108.75,70.44z"/>
	<path class="st1" d="M1135.83,70.44c0,1.87-1.52,3.39-3.38,3.39c-1.87,0-3.39-1.52-3.39-3.39c0-1.87,1.52-3.38,3.39-3.38
		C1134.31,67.05,1135.83,68.57,1135.83,70.44z"/>
	<path class="st1" d="M1162.9,70.44c0,1.87-1.52,3.39-3.38,3.39c-1.87,0-3.39-1.52-3.39-3.39c0-1.87,1.52-3.38,3.39-3.38
		C1161.39,67.05,1162.9,68.57,1162.9,70.44z"/>
	<path class="st1" d="M1027.51,95.5c0,1.87-1.52,3.39-3.38,3.39c-1.87,0-3.38-1.52-3.38-3.39c0-1.87,1.52-3.38,3.38-3.38
		C1025.99,92.12,1027.51,93.63,1027.51,95.5z"/>
	<path class="st1" d="M1054.59,95.5c0,1.87-1.52,3.39-3.38,3.39c-1.87,0-3.39-1.52-3.39-3.39c0-1.87,1.52-3.38,3.39-3.38
		C1053.07,92.12,1054.59,93.63,1054.59,95.5z"/>
	<path class="st1" d="M1081.67,95.5c0,1.87-1.52,3.39-3.38,3.39s-3.39-1.52-3.39-3.39c0-1.87,1.52-3.38,3.39-3.38
		S1081.67,93.63,1081.67,95.5z"/>
	<path class="st1" d="M1108.75,95.5c0,1.87-1.52,3.39-3.38,3.39c-1.87,0-3.39-1.52-3.39-3.39c0-1.87,1.52-3.38,3.39-3.38
		C1107.23,92.12,1108.75,93.63,1108.75,95.5z"/>
	<path class="st1" d="M1135.83,95.5c0,1.87-1.52,3.39-3.38,3.39c-1.87,0-3.39-1.52-3.39-3.39c0-1.87,1.52-3.38,3.39-3.38
		C1134.31,92.12,1135.83,93.63,1135.83,95.5z"/>
	<path class="st1" d="M1162.9,95.5c0,1.87-1.52,3.39-3.38,3.39c-1.87,0-3.39-1.52-3.39-3.39c0-1.87,1.52-3.38,3.39-3.38
		C1161.39,92.12,1162.9,93.63,1162.9,95.5z"/>
	<path class="st1" d="M1027.51,120.57c0,1.87-1.52,3.38-3.38,3.38c-1.87,0-3.38-1.52-3.38-3.38c0-1.87,1.52-3.38,3.38-3.38
		C1025.99,117.18,1027.51,118.7,1027.51,120.57z"/>
	<path class="st1" d="M1054.59,120.57c0,1.87-1.52,3.38-3.38,3.38c-1.87,0-3.39-1.52-3.39-3.38c0-1.87,1.52-3.38,3.39-3.38
		C1053.07,117.18,1054.59,118.7,1054.59,120.57z"/>
	<path class="st1" d="M1081.67,120.57c0,1.87-1.52,3.38-3.38,3.38s-3.39-1.52-3.39-3.38c0-1.87,1.52-3.38,3.39-3.38
		S1081.67,118.7,1081.67,120.57z"/>
	<path class="st1" d="M1108.75,120.57c0,1.87-1.52,3.38-3.38,3.38c-1.87,0-3.39-1.52-3.39-3.38c0-1.87,1.52-3.38,3.39-3.38
		C1107.23,117.18,1108.75,118.7,1108.75,120.57z"/>
	<path class="st1" d="M1135.83,120.57c0,1.87-1.52,3.38-3.38,3.38c-1.87,0-3.39-1.52-3.39-3.38c0-1.87,1.52-3.38,3.39-3.38
		C1134.31,117.18,1135.83,118.7,1135.83,120.57z"/>
	<path class="st1" d="M1162.9,120.57c0,1.87-1.52,3.38-3.38,3.38c-1.87,0-3.39-1.52-3.39-3.38c0-1.87,1.52-3.38,3.39-3.38
		C1161.39,117.18,1162.9,118.7,1162.9,120.57z"/>
	<path class="st1" d="M1027.51,145.64c0,1.87-1.52,3.38-3.38,3.38c-1.87,0-3.38-1.52-3.38-3.38s1.52-3.38,3.38-3.38
		C1025.99,142.25,1027.51,143.77,1027.51,145.64z"/>
	<path class="st1" d="M1054.59,145.64c0,1.87-1.52,3.38-3.38,3.38c-1.87,0-3.39-1.52-3.39-3.38s1.52-3.38,3.39-3.38
		C1053.07,142.25,1054.59,143.77,1054.59,145.64z"/>
	<path class="st1" d="M1081.67,145.64c0,1.87-1.52,3.38-3.38,3.38s-3.39-1.52-3.39-3.38s1.52-3.38,3.39-3.38
		S1081.67,143.77,1081.67,145.64z"/>
	<path class="st1" d="M1108.75,145.64c0,1.87-1.52,3.38-3.38,3.38c-1.87,0-3.39-1.52-3.39-3.38s1.52-3.38,3.39-3.38
		C1107.23,142.25,1108.75,143.77,1108.75,145.64z"/>
	<path class="st1" d="M1135.83,145.64c0,1.87-1.52,3.38-3.38,3.38c-1.87,0-3.39-1.52-3.39-3.38s1.52-3.38,3.39-3.38
		C1134.31,142.25,1135.83,143.77,1135.83,145.64z"/>
	<path class="st1" d="M1162.9,145.64c0,1.87-1.52,3.38-3.38,3.38c-1.87,0-3.39-1.52-3.39-3.38s1.52-3.38,3.39-3.38
		C1161.39,142.25,1162.9,143.77,1162.9,145.64z"/>
</g>
<linearGradient id="SVGID_00000063597027562872559470000005835081921680285627_" gradientUnits="userSpaceOnUse" x1="52.2457" y1="292.8871" x2="52.2457" y2="97.2656" gradientTransform="matrix(0.9397 0.342 -0.342 0.9397 116.6167 -40.6874)">
	<stop  offset="5.376340e-03" style="stop-color:#FF3E83;stop-opacity:0"/>
	<stop  offset="0.053" style="stop-color:#F53A84;stop-opacity:0.0435"/>
	<stop  offset="0.3821" style="stop-color:#B72287;stop-opacity:0.3443"/>
	<stop  offset="0.6609" style="stop-color:#8A108A;stop-opacity:0.5991"/>
	<stop  offset="0.8754" style="stop-color:#6E058B;stop-opacity:0.7953"/>
	<stop  offset="1" style="stop-color:#64018C;stop-opacity:0.9091"/>
</linearGradient>
<circle style="opacity:0.69;fill:url(#SVGID_00000063597027562872559470000005835081921680285627_);" cx="99" cy="160.49" r="97.81"/>
<linearGradient id="SVGID_00000048459531403251425510000001029228856949545344_" gradientUnits="userSpaceOnUse" x1="141.3044" y1="283.7705" x2="252.2915" y2="394.7577" gradientTransform="matrix(0.9397 0.342 -0.342 0.9397 116.6167 -40.6874)">
	<stop  offset="0" style="stop-color:#FFD727"/>
	<stop  offset="0.1486" style="stop-color:#FFBC37;stop-opacity:0.9103"/>
	<stop  offset="0.5527" style="stop-color:#FF7960;stop-opacity:0.6666"/>
	<stop  offset="0.8454" style="stop-color:#FF4E79;stop-opacity:0.49"/>
	<stop  offset="0.9946" style="stop-color:#FF3E83;stop-opacity:0.4"/>
</linearGradient>
<circle style="fill:url(#SVGID_00000048459531403251425510000001029228856949545344_);" cx="185.53" cy="345.42" r="78.48"/>
<linearGradient id="SVGID_00000170975861148739940220000005778680637145051319_" gradientUnits="userSpaceOnUse" x1="964.3026" y1="330.9348" x2="964.3026" y2="135.3133" gradientTransform="matrix(0.853 0.5218 -0.5218 0.853 340.8119 -524.6722)">
	<stop  offset="5.376340e-03" style="stop-color:#FF3E83;stop-opacity:0"/>
	<stop  offset="0.053" style="stop-color:#F53A84;stop-opacity:0.0435"/>
	<stop  offset="0.3821" style="stop-color:#B72287;stop-opacity:0.3443"/>
	<stop  offset="0.6609" style="stop-color:#8A108A;stop-opacity:0.5991"/>
	<stop  offset="0.8754" style="stop-color:#6E058B;stop-opacity:0.7953"/>
	<stop  offset="1" style="stop-color:#64018C;stop-opacity:0.9091"/>
</linearGradient>
<circle style="opacity:0.69;fill:url(#SVGID_00000170975861148739940220000005778680637145051319_);" cx="1041.76" cy="177.4" r="97.81"/>
<linearGradient id="SVGID_00000048501839247782599080000011210430544260409237_" gradientUnits="userSpaceOnUse" x1="1053.3613" y1="321.8183" x2="1164.3484" y2="432.8054" gradientTransform="matrix(0.853 0.5218 -0.5218 0.853 340.8119 -524.6722)">
	<stop  offset="0" style="stop-color:#FFD727"/>
	<stop  offset="0.1486" style="stop-color:#FFBC37;stop-opacity:0.9103"/>
	<stop  offset="0.5527" style="stop-color:#FF7960;stop-opacity:0.6666"/>
	<stop  offset="0.8454" style="stop-color:#FF4E79;stop-opacity:0.49"/>
	<stop  offset="0.9946" style="stop-color:#FF3E83;stop-opacity:0.4"/>
</linearGradient>
<circle style="fill:url(#SVGID_00000048501839247782599080000011210430544260409237_);" cx="1089.83" cy="375.83" r="78.48"/>
<rect class="st12" width="1177.01" height="795.52"/>
<rect class="st12" width="1177.01" height="795.52"/>
<linearGradient id="SVGID_00000121254758233520602070000014095646143963746733_" gradientUnits="userSpaceOnUse" x1="63.6514" y1="233.3063" x2="287.8841" y2="457.5389">
	<stop  offset="0" style="stop-color:#FF3E83"/>
	<stop  offset="1" style="stop-color:#FFD727"/>
</linearGradient>
<circle style="fill:none;stroke:url(#SVGID_00000121254758233520602070000014095646143963746733_);stroke-width:2;stroke-miterlimit:10;" cx="175.77" cy="345.42" r="157.56"/>
<linearGradient id="SVGID_00000034048766472937338400000000982302698809148087_" gradientUnits="userSpaceOnUse" x1="893.6999" y1="294.4158" x2="1100.392" y2="501.1079">
	<stop  offset="0" style="stop-color:#FF3E83"/>
	<stop  offset="1" style="stop-color:#FFD727"/>
</linearGradient>
<circle style="fill:none;stroke:url(#SVGID_00000034048766472937338400000000982302698809148087_);stroke-width:2;stroke-miterlimit:10;" cx="997.05" cy="397.76" r="145.15"/>
</svg>
